<?xml version="1.0" encoding="UTF-8" standalone="no"?>
<!-- Created with Inkscape (http://www.inkscape.org/) -->

<svg
   width="132.40121mm"
   height="174.38733mm"
   viewBox="0 0 132.40121 174.38733"
   version="1.1"
   id="svg5"
   inkscape:version="1.1.2 (b8e25be8, 2022-02-05)"
   sodipodi:docname="goalie_mask.svg"
   xmlns:inkscape="http://www.inkscape.org/namespaces/inkscape"
   xmlns:sodipodi="http://sodipodi.sourceforge.net/DTD/sodipodi-0.dtd"
   xmlns="http://www.w3.org/2000/svg"
   xmlns:svg="http://www.w3.org/2000/svg">
  <sodipodi:namedview
     id="namedview7"
     pagecolor="#ffffff"
     bordercolor="#666666"
     borderopacity="1.0"
     inkscape:pageshadow="2"
     inkscape:pageopacity="0.0"
     inkscape:pagecheckerboard="0"
     inkscape:document-units="mm"
     showgrid="false"
     fit-margin-top="0"
     fit-margin-left="0"
     fit-margin-right="0"
     fit-margin-bottom="0"
     inkscape:zoom="0.57549102"
     inkscape:cx="-175.5023"
     inkscape:cy="518.6875"
     inkscape:window-width="2075"
     inkscape:window-height="1147"
     inkscape:window-x="67"
     inkscape:window-y="73"
     inkscape:window-maximized="0"
     inkscape:current-layer="layer1" />
  <defs
     id="defs2" />
  <g
     inkscape:label="Layer 1"
     inkscape:groupmode="layer"
     id="layer1"
     transform="translate(-25.915949,-17.139268)">
    <path
       style="fill:#000000;stroke-width:0.176389"
       d="m 66.361598,191.37304 c -3.739907,-0.54483 -6.253597,-2.35037 -8.275721,-5.94432 -1.411657,-2.50896 -1.821501,-3.67874 -7.612875,-21.72886 -1.026495,-3.1993 -2.522691,-9.10254 -2.90591,-11.46527 -0.177666,-1.09541 -0.383021,-1.59594 -1.194063,-2.91042 -1.680187,-2.72313 -2.509513,-4.94719 -2.776112,-7.44487 l -0.116867,-1.09488 -0.914599,-0.51616 c -1.654092,-0.93351 -2.823011,-2.59549 -3.402307,-4.83742 -0.233322,-0.90298 -0.265686,-1.69106 -0.180908,-4.40511 0.100944,-3.23151 0.09364,-3.32712 -0.326984,-4.27822 -0.23663,-0.53506 -0.827818,-2.27093 -1.313754,-3.85748 -1.148888,-3.75105 -1.765591,-5.21803 -2.624499,-6.24305 -0.385609,-0.46018 -1.591213,-2.1067 -2.679121,-3.65892 -3.753954,-5.35613 -5.840954,-10.8162 -6.101595,-15.963195 -0.110275,-2.17763 0.236453,-7.67476 0.834418,-13.22917 0.640844,-5.95269 1.170416,-8.37994 1.997927,-9.15735 0.402122,-0.37777 1.860303,-0.68241 3.41132,-0.71269 0.349422,-0.007 0.396875,-0.0993 0.396875,-0.77328 0,-2.36505 1.635937,-6.028241 4.423894,-9.905991 3.554887,-4.94446 3.930657,-5.78411 5.539323,-12.37741 0.540355,-2.214716 1.190066,-4.661753 1.4438,-5.437865 0.9796,-2.99637 2.812524,-6.261556 4.624386,-8.23793 0.920825,-1.004433 4.808408,-3.932687 8.310264,-6.25956 2.521685,-1.675582 8.496041,-5.182549 13.405555,-7.869107 0.630591,-0.345068 2.178403,-1.384869 3.439588,-2.310669 3.38533,-2.485088 4.75594,-2.90971 10.93611,-3.38807 7.627555,-0.590392 14.634035,-0.04899 24.429857,1.887735 7.27864,1.439056 8.95343,2.113421 14.49297,5.835676 2.34103,1.57304 2.83655,2.004372 5.21698,4.541226 4.33568,4.620565 6.06778,7.529229 10.01771,16.822335 0.60994,1.435024 1.4479,3.179629 1.86214,3.876889 1.51889,2.55667 4.61202,5.07203 7.91195,6.43405 7.321,3.0217 8.94056,5.71654 9.56371,15.913461 0.16367,2.6782 0.16292,5.37066 -0.003,12.08869 -0.11767,4.75368 -0.28678,9.67493 -0.3758,10.93611 -0.92776,13.144785 -1.00113,13.801375 -1.77128,15.850895 -0.51873,1.38045 -2.19342,3.40945 -4.16912,5.05119 -2.93541,2.43923 -8.77376,6.99724 -10.5549,8.24025 -0.97014,0.67703 -4.5817,3.15913 -8.02569,5.51578 -3.444,2.35665 -7.17679,5.01888 -8.29511,5.91607 -2.78904,2.23757 -8.88904,8.763 -10.9692,11.73426 -2.11894,3.02664 -7.88391,13.19877 -10.95396,19.32795 -1.36774,2.73063 -2.55832,4.78275 -4.191532,7.22467 -1.94393,2.9065 -6.77671,7.2533 -11.80409,10.61709 -6.738895,4.50895 -15.107883,7.0104 -20.71939,6.19294 z M 63.709462,148.6831 c 4.252678,-0.61964 7.388319,-1.92979 12.082641,-5.04841 4.13096,-2.74437 9.71197,-7.17144 9.69462,-7.69014 -0.0152,-0.45376 -6.09058,-3.62484 -7.19746,-3.75674 -0.5762,-0.0687 -0.78566,0.0368 -1.96155,0.98787 -2.92274,2.36389 -6.098358,4.3835 -10.85403,6.90289 -2.210936,1.17127 -3.211885,1.54536 -5.402806,2.01918 l -1.521919,0.32914 0.07891,0.71461 c 0.0434,0.39304 0.326484,1.88735 0.629074,3.3207 l 0.550162,2.60608 1.333817,-0.10264 c 0.7336,-0.0564 1.889443,-0.18359 2.568541,-0.28254 z m -9.1669,-0.10858 c -0.06634,-0.16978 -0.311343,-1.29705 -0.544451,-2.50506 -0.28037,-1.45292 -0.532971,-2.30551 -0.746252,-2.51879 -0.177329,-0.17733 -0.913162,-0.47081 -1.635183,-0.65219 -0.722024,-0.18138 -1.574687,-0.41273 -1.89481,-0.51412 -0.551381,-0.17464 -0.576011,-0.16396 -0.467542,0.20273 0.06297,0.21289 0.51223,1.20608 0.998345,2.20708 1.049115,2.16032 2.293587,3.57378 3.404614,3.86693 0.989874,0.26118 1.020015,0.25823 0.885279,-0.0866 z m 7.207666,-11.34565 c 2.318568,-0.77103 5.675695,-2.38682 8.169125,-3.9318 1.720116,-1.06581 3.57969,-2.63787 3.57969,-3.02622 0,-0.27459 -1.394911,-0.75155 -4.321525,-1.47764 -4.335985,-1.07577 -9.149087,-1.78223 -12.142207,-1.78223 h -1.561037 l 0.120678,0.92604 c 0.11408,0.8754 0.926282,5.22969 1.615626,8.6615 l 0.313728,1.56185 1.064105,-0.11695 c 0.585259,-0.0643 2.008077,-0.43087 3.161817,-0.81455 z m -9.772003,0.49773 c -0.0073,-0.23445 -2.117808,-10.77694 -2.167339,-10.82647 -0.0364,-0.0364 -1.242584,0.17209 -2.680417,0.46331 -1.437832,0.29121 -2.846288,0.52948 -3.129902,0.52948 -0.489081,0 -0.509406,0.0296 -0.394275,0.57326 0.369891,1.74684 2.499097,5.47342 4.042891,7.07596 1.139645,1.18302 2.936246,2.22856 3.829424,2.22856 0.275548,0 0.500375,-0.0198 0.499618,-0.0441 z m 38.475613,-4.86252 c 1.59818,-1.04339 7.02472,-5.68498 8.72135,-7.4598 2.251212,-2.35496 3.593682,-4.52538 3.863342,-6.24604 0.10077,-0.64301 0.0213,-0.85199 -0.85366,-2.2457 -1.11389,-1.7742 -2.967652,-4.10077 -3.490292,-4.38048 -0.31917,-0.17081 -0.53514,-0.001 -1.96388,1.54315 -2.4261,2.62227 -11.440175,11.59166 -13.442065,13.37543 -0.97014,0.86443 -1.76389,1.68006 -1.76389,1.8125 0,0.29967 6.739925,4.4253 7.253405,4.43994 0.20583,0.006 0.95989,-0.37168 1.67569,-0.839 z m -9.557155,-9.0281 c 1.96348,-1.79476 6.063555,-5.87137 9.111275,-9.05915 l 5.54131,-5.79594 -0.87044,-0.99503 c -0.47874,-0.54726 -1.85327,-1.97116 -3.05451,-3.16421 l -2.18407,-2.16919 -3.18909,3.66849 c -1.753995,2.01767 -3.693735,4.14739 -4.310525,4.73271 -2.10365,1.99627 -5.5464,4.81058 -7.21594,5.89874 -3.904905,2.54509 -9.907025,4.96797 -14.546944,5.87218 -2.61054,0.50873 -2.728037,0.83278 -0.304745,0.84045 0.945885,0.003 2.288453,0.0793 2.983486,0.16966 2.40578,0.31261 8.27336,1.7459 11.078583,2.70619 2.24798,0.76954 2.8753,0.92339 3.10446,0.76136 0.15794,-0.11169 1.89366,-1.67151 3.85715,-3.46626 z m -22.264035,-5.04601 c 5.50334,-1.49559 12.590199,-4.94658 17.030035,-8.29287 3.06421,-2.30949 10.383815,-10.00302 10.352495,-10.881365 -0.0127,-0.35541 -2.797475,-2.3257 -4.908535,-3.47285 -4.74213,-2.57689 -6.70145,-3.142 -13.781209,-3.97483 -2.616976,-0.30784 -10.596613,-0.55228 -11.857376,-0.36322 -1.494259,0.22408 -1.389687,-1.12514 -1.081294,13.951285 0.150818,7.37305 0.302985,13.50365 0.338148,13.62355 0.08941,0.30488 1.273375,0.12621 3.907736,-0.5897 z m -9.411125,-0.73073 c -0.04677,-0.75186 -0.127431,-1.52576 -0.179238,-1.71979 -0.05181,-0.19403 -0.160329,-4.91684 -0.241153,-10.49514 -0.08083,-5.5783 -0.204537,-11.033995 -0.274913,-12.123775 l -0.127956,-1.9814 -0.634679,-0.12043 c -0.840435,-0.15947 -9.425587,0.24556 -10.366257,0.48906 -0.404661,0.10474 -0.920598,0.3878 -1.146528,0.62901 l -0.410781,0.43856 0.01985,5.40844 c 0.02655,7.233605 0.442882,10.334075 1.837517,13.684145 0.705698,1.69516 1.729534,2.83928 3.481716,3.89076 2.738871,1.64359 6.450284,3.24187 7.567803,3.259 l 0.55966,0.009 -0.08504,-1.36701 z m 50.322615,-13.31736 c 0.37952,-0.41231 1.679472,-2.12349 2.888792,-3.80263 1.20931,-1.679145 2.61253,-3.623825 3.11825,-4.321535 1.16746,-1.61064 1.62288,-2.92356 1.75752,-5.06675 0.19328,-3.07664 -0.0373,-3.20558 -5.78827,-3.2367 -3.584132,-0.0194 -3.840772,8.8e-4 -4.209942,0.33212 -0.21622,0.19403 -0.80599,1.22591 -1.31059,2.29306 -0.50461,1.06715 -1.40448,2.78309 -1.99971,3.8132 -0.86716,1.50069 -1.98031,3.71909 -1.98031,3.94655 0,0.0236 0.84319,0.78765 1.87375,1.697845 1.13345,1.00106 2.39043,2.33439 3.18145,3.3747 0.71923,0.94589 1.41374,1.71979 1.54336,1.71979 0.12962,0 0.54619,-0.33734 0.9257,-0.74965 z M 31.732531,100.06 c -0.05717,-2.418785 -0.138014,-3.383685 -0.279525,-3.336075 -0.304051,0.10228 -0.271925,5.905785 0.03568,6.445565 0.129127,0.22659 0.254914,0.38534 0.279525,0.35277 0.02461,-0.0326 0.0086,-1.59057 -0.03568,-3.46226 z m 58.873887,-8.018125 c 1.09809,-1.96453 2.02878,-3.63141 2.06818,-3.70417 0.0394,-0.0728 -4.59631,-0.12976 -10.301605,-0.12668 -11.672518,0.006 -11.575245,-0.009 -7.24262,1.14124 4.48404,1.19046 6.54,2.08943 10.27492,4.49269 2.461875,1.58412 2.755945,1.75621 3.013405,1.76343 0.10515,0.003 1.08962,-1.60198 2.18772,-3.56651 z m -59.684676,-0.92665 c 1.2361,-0.98833 3.43704,-2.16991 4.780207,-2.56628 0.794385,-0.23442 0.85226,-0.51992 0.105396,-0.51992 -0.249054,0 -1.151697,-0.16407 -2.005875,-0.36461 -1.155527,-0.27129 -1.794861,-0.53777 -2.497756,-1.0411 l -0.944707,-0.67649 -0.393612,2.76089 c -0.38738,2.7172 -0.450482,3.37826 -0.322473,3.37826 0.03559,0 0.611061,-0.43684 1.27882,-0.97075 z"
       id="path848" />
  </g>
</svg>
