<?xml version="1.0" encoding="UTF-8" standalone="no"?>
<!-- Created with Inkscape (http://www.inkscape.org/) -->

<svg width="150mm" height="150mm" viewBox="0 0 150 150" version="1.1" id="svg5" inkscape:version="1.1.2 (b8e25be8, 2022-02-05)" sodipodi:docname="xcheck_new.svg"
   xmlns:inkscape="http://www.inkscape.org/namespaces/inkscape"
   xmlns:sodipodi="http://sodipodi.sourceforge.net/DTD/sodipodi-0.dtd"
   xmlns="http://www.w3.org/2000/svg"
   xmlns:svg="http://www.w3.org/2000/svg">
   <sodipodi:namedview id="namedview7" pagecolor="#ffffff" bordercolor="#666666" borderopacity="1.0" inkscape:pageshadow="2" inkscape:pageopacity="0.0" inkscape:pagecheckerboard="true" inkscape:document-units="mm" showgrid="false" fit-margin-top="0" fit-margin-left="0" fit-margin-right="0" fit-margin-bottom="0" inkscape:zoom="0.73090056" inkscape:cx="-99.1927" inkscape:cy="229.16934" inkscape:window-width="2248" inkscape:window-height="1265" inkscape:window-x="0" inkscape:window-y="25" inkscape:window-maximized="0" inkscape:current-layer="layer1" />
   <defs id="defs2" />
   <g inkscape:label="Layer 1" inkscape:groupmode="layer" id="layer1" transform="translate(-48.639421,-90.386289)">
      <path style="fill:#ffffff;fill-opacity:1;stroke-width:0.0846667" d="m 74.37442,213.7524 c -1.054063,-1.29912 -2.122064,-2.96604 -2.782099,-4.34224 -3.167604,-6.60463 -2.703421,-14.39005 1.225894,-20.56099 1.142159,-1.79375 1.056258,-1.69912 6.795295,-7.48516 5.855926,-5.90388 5.67299,-5.73856 6.775823,-6.12396 0.634282,-0.22165 1.916551,-0.22151 2.549799,2.9e-4 1.372581,0.48077 2.273167,1.38136 2.753945,2.75394 0.221987,0.63379 0.221988,1.91572 -8e-6,2.54951 -0.375768,1.07282 -0.261139,0.94434 -5.671589,6.35717 -5.280256,5.28266 -5.550477,5.57817 -6.33804,6.933 -1.825756,3.14081 -2.220138,6.94132 -1.076754,10.37621 2.547544,7.65313 11.475163,11.0359 18.440116,6.98715 1.429805,-0.83114 1.315487,-0.72287 11.256098,-10.66114 l 9.29598,-9.29315 -2.99342,-2.99342 -2.99341,-2.99341 -9.14729,9.14728 c -9.990175,9.99018 -9.423499,9.46027 -10.531889,9.8485 -0.633794,0.22199 -1.915722,0.22199 -2.549509,1e-5 -1.832319,-0.6418 -2.92477,-2.1466 -2.92477,-4.0287 -7e-6,-0.45372 0.07234,-0.99358 0.17083,-1.27475 0.388222,-1.10839 -0.141549,-0.54185 9.847225,-10.53062 l 9.146003,-9.146 -16.009537,-16.04999 c -17.305879,-17.34972 -16.13807,-16.13931 -17.30133,-17.93184 -4.578254,-7.05477 -4.529885,-16.241 0.122256,-23.21912 0.888784,-1.33316 1.390315,-1.93651 2.69038,-3.23658 1.300072,-1.30007 1.903432,-1.8016 3.236582,-2.69038 6.930421,-4.62034 16.019888,-4.70485 23.071899,-0.21451 1.89204,1.20474 1.2154,0.56663 12.12286,11.43273 l 10.0307,9.99266 15.74887,-15.70828 c 17.02027,-16.97639 15.83895,-15.83738 17.63033,-16.99986 7.05477,-4.57825 16.24101,-4.52989 23.21913,0.12225 1.33316,0.88879 1.93652,1.39032 3.23659,2.69039 1.30006,1.30006 1.8016,1.90342 2.69038,3.23658 4.65214,6.97812 4.7005,16.16435 0.12225,23.21912 -1.17361,1.80846 0.53342,0.0546 -22.98852,23.61901 l -21.69767,21.73684 9.14632,9.14632 c 9.98913,9.98913 9.45933,9.42256 9.84755,10.53094 0.222,0.63379 0.222,1.91572 0,2.5495 -0.48077,1.37259 -1.38136,2.27318 -2.75394,2.75395 -0.63379,0.222 -1.91572,0.222 -2.54951,0 -1.10839,-0.38823 -0.54171,0.14168 -10.53189,-9.8485 l -9.14728,-9.14729 -2.99342,2.99342 -2.99342,2.99342 9.29598,9.29315 c 9.94085,9.93802 9.82603,9.83027 11.2561,10.66113 4.97612,2.89263 11.29962,2.07117 15.36707,-1.99628 4.06746,-4.06746 4.88892,-10.39096 1.99629,-15.36708 -0.78756,-1.35482 -1.05775,-1.65037 -6.33803,-6.93299 -5.41024,-5.41306 -5.29575,-5.28443 -5.6716,-6.35718 -0.22199,-0.63378 -0.22199,-1.91571 0,-2.5495 0.6418,-1.83231 2.14659,-2.92478 4.0287,-2.92478 0.85368,10e-6 1.48484,0.17536 2.23086,0.61978 0.41329,0.24622 1.09151,0.9075 5.82001,5.67472 5.73906,5.78602 5.65311,5.69144 6.79529,7.48517 2.60362,4.08896 3.72531,8.95538 3.17584,13.77833 -0.37843,3.32161 -1.54999,6.53305 -3.39034,9.29357 -0.88879,1.33316 -1.39033,1.93651 -2.6904,3.23658 -1.30006,1.30006 -1.90342,1.8016 -3.23657,2.69039 -6.93043,4.62034 -16.01988,4.70484 -23.0719,0.2145 -1.88849,-1.20248 -1.24689,-0.59833 -11.82295,-11.13281 l -9.73085,-9.69266 -9.73084,9.69266 c -10.57605,10.53447 -9.93451,9.93027 -11.82295,11.13281 -4.67462,2.97655 -10.399915,4.00894 -15.800945,2.8492 -3.001555,-0.6445 -5.700263,-1.87367 -8.29345,-3.77737 -0.854977,-0.62765 -2.913365,-2.58159 -3.562765,-3.38197 z m 76.46495,-55.75269 c 29.34636,-29.3492 27.7529,-27.72222 28.62166,-29.21662 1.82576,-3.1408 2.22014,-6.94133 1.07675,-10.37621 -2.54753,-7.65312 -11.47515,-11.03589 -18.44012,-6.98715 -1.47325,0.85641 -0.70259,0.11 -18.90667,18.31171 -18.54811,18.54571 -17.20188,17.24982 -18.33085,17.64527 -0.63378,0.22199 -1.91571,0.22199 -2.5495,0 -1.11652,-0.39108 -0.33728,0.34591 -12.64335,-11.95777 -12.059954,-12.05712 -11.773323,-11.78322 -13.219166,-12.62422 -4.97612,-2.89263 -11.299624,-2.07116 -15.367072,1.99629 -4.466504,4.4665 -4.963635,11.5159 -1.171586,16.61324 0.340154,0.45725 5.11533,5.26762 22.055044,22.21762 l 21.62108,21.63381 z M 86.442553,135.94879 c -0.411066,-0.70813 -0.582971,-1.35087 -0.58297,-2.17971 0,-1.88211 1.092455,-3.3869 2.924778,-4.0287 0.633788,-0.222 1.915717,-0.222 2.549501,0 1.126656,0.39463 -0.07027,-0.75366 16.818078,16.13468 l 15.43345,15.43347 21.12096,-21.12096 c 23.13139,-23.13138 21.37152,-21.42498 22.50558,-21.82219 0.63379,-0.22199 1.91571,-0.22199 2.5495,0 1.37259,0.48077 2.27317,1.38136 2.75395,2.75395 0.22199,0.63378 0.22199,1.91571 0,2.5495 -0.39774,1.13552 1.47185,-0.78846 -23.48593,24.16932 -24.95776,24.95777 -23.03376,23.0882 -24.1693,23.48592 -0.6338,0.22198 -1.91573,0.22198 -2.54951,0 -1.12976,-0.39573 0.23744,0.92155 -18.50541,-17.82992 C 88.99504,138.6769 86.651746,136.30928 86.442553,135.94879 Z" id="path57" />
   </g>
</svg>
